STARTFONT 2.1
COMMENT
COMMENT Converted from OpenType font "SEMPRG__.TTF" by "otf2bdf 3.0".
COMMENT
FONT -FreeType-Semplice Regular-Medium-R-Normal--11-80-100-100-P-60-ISO10646-1
SIZE 8 100 100
FONTBOUNDINGBOX 13 18 0 -3
STARTPROPERTIES 19
FOUNDRY "FreeType"
FAMILY_NAME "Semplice Regular"
WEIGHT_NAME "Medium"
SLANT "R"
SETWIDTH_NAME "Normal"
ADD_STYLE_NAME ""
PIXEL_SIZE 11
POINT_SIZE 80
RESOLUTION_X 100
RESOLUTION_Y 100
SPACING "P"
AVERAGE_WIDTH 60
CHARSET_REGISTRY "ISO10646"
CHARSET_ENCODING "1"
FONT_ASCENT 15
FONT_DESCENT 2
COPYRIGHT "Semplice Regular - © 2005 Michael Schmidt - http://www.style-force.net"
_OTF_FONTFILE "SEMPRG__.TTF"
_OTF_PSNAME "SempliceRegular"
ENDPROPERTIES
CHARS 256
STARTCHAR 0020
ENCODING 32
SWIDTH 360 0
DWIDTH 4 0
BBX 0 0 0 0
BITMAP
ENDCHAR
STARTCHAR 0021
ENCODING 33
SWIDTH 270 0
DWIDTH 3 0
BBX 1 10 0 0
BITMAP
80
80
80
80
80
80
80
00
00
80
ENDCHAR
STARTCHAR 0022
ENCODING 34
SWIDTH 540 0
DWIDTH 6 0
BBX 4 3 0 7
BITMAP
90
90
90
ENDCHAR
STARTCHAR 0023
ENCODING 35
SWIDTH 720 0
DWIDTH 8 0
BBX 7 7 0 1
BITMAP
6C
FE
6C
6C
FE
6C
6C
ENDCHAR
STARTCHAR 0024
ENCODING 36
SWIDTH 720 0
DWIDTH 8 0
BBX 7 12 0 -1
BITMAP
10
7C
94
92
90
90
7C
14
12
92
7C
10
ENDCHAR
STARTCHAR 0025
ENCODING 37
SWIDTH 990 0
DWIDTH 11 0
BBX 10 10 0 0
BITMAP
60C0
A100
9100
6200
0400
0C00
1100
2300
62C0
8100
ENDCHAR
STARTCHAR 0026
ENCODING 38
SWIDTH 720 0
DWIDTH 8 0
BBX 7 10 0 0
BITMAP
70
90
8C
8C
90
70
90
90
8C
72
ENDCHAR
STARTCHAR 0027
ENCODING 39
SWIDTH 270 0
DWIDTH 3 0
BBX 1 3 0 7
BITMAP
80
80
80
ENDCHAR
STARTCHAR 0028
ENCODING 40
SWIDTH 360 0
DWIDTH 4 0
BBX 3 10 0 0
BITMAP
60
80
80
80
80
80
80
80
80
60
ENDCHAR
STARTCHAR 0029
ENCODING 41
SWIDTH 360 0
DWIDTH 4 0
BBX 3 10 0 0
BITMAP
80
80
60
60
60
60
60
60
60
80
ENDCHAR
STARTCHAR 002A
ENCODING 42
SWIDTH 720 0
DWIDTH 8 0
BBX 7 7 0 1
BITMAP
10
92
94
7C
92
10
10
ENDCHAR
STARTCHAR 002B
ENCODING 43
SWIDTH 540 0
DWIDTH 6 0
BBX 4 4 0 3
BITMAP
60
60
F0
60
ENDCHAR
STARTCHAR 002C
ENCODING 44
SWIDTH 360 0
DWIDTH 4 0
BBX 3 2 0 -1
BITMAP
60
80
ENDCHAR
STARTCHAR 002D
ENCODING 45
SWIDTH 540 0
DWIDTH 6 0
BBX 4 2 0 4
BITMAP
F0
F0
ENDCHAR
STARTCHAR 002E
ENCODING 46
SWIDTH 270 0
DWIDTH 3 0
BBX 1 1 0 0
BITMAP
80
ENDCHAR
STARTCHAR 002F
ENCODING 47
SWIDTH 540 0
DWIDTH 6 0
BBX 4 10 0 0
BITMAP
10
10
20
60
60
60
60
80
80
80
ENDCHAR
STARTCHAR 0030
ENCODING 48
SWIDTH 630 0
DWIDTH 7 0
BBX 6 10 0 0
BITMAP
70
90
8C
8C
8C
8C
8C
8C
8C
70
ENDCHAR
STARTCHAR 0031
ENCODING 49
SWIDTH 540 0
DWIDTH 6 0
BBX 4 10 0 0
BITMAP
10
10
70
90
10
10
10
10
10
10
ENDCHAR
STARTCHAR 0032
ENCODING 50
SWIDTH 630 0
DWIDTH 7 0
BBX 6 10 0 0
BITMAP
70
90
8C
0C
10
10
60
80
80
FC
ENDCHAR
STARTCHAR 0033
ENCODING 51
SWIDTH 630 0
DWIDTH 7 0
BBX 6 10 0 0
BITMAP
70
90
8C
0C
10
10
10
0C
8C
70
ENDCHAR
STARTCHAR 0034
ENCODING 52
SWIDTH 720 0
DWIDTH 8 0
BBX 7 10 0 0
BITMAP
0C
0C
1C
6C
8C
8C
FE
0C
0C
0C
ENDCHAR
STARTCHAR 0035
ENCODING 53
SWIDTH 630 0
DWIDTH 7 0
BBX 6 10 0 0
BITMAP
FC
80
80
80
80
F0
10
0C
0C
F0
ENDCHAR
STARTCHAR 0036
ENCODING 54
SWIDTH 630 0
DWIDTH 7 0
BBX 6 10 0 0
BITMAP
70
90
8C
80
80
F0
90
8C
8C
70
ENDCHAR
STARTCHAR 0037
ENCODING 55
SWIDTH 630 0
DWIDTH 7 0
BBX 6 10 0 0
BITMAP
FC
0C
0C
0C
10
10
10
20
60
60
ENDCHAR
STARTCHAR 0038
ENCODING 56
SWIDTH 630 0
DWIDTH 7 0
BBX 6 10 0 0
BITMAP
70
90
8C
8C
90
70
90
8C
8C
70
ENDCHAR
STARTCHAR 0039
ENCODING 57
SWIDTH 630 0
DWIDTH 7 0
BBX 6 10 0 0
BITMAP
70
90
8C
8C
8C
7C
0C
0C
8C
70
ENDCHAR
STARTCHAR 003A
ENCODING 58
SWIDTH 270 0
DWIDTH 3 0
BBX 1 4 0 3
BITMAP
80
00
00
80
ENDCHAR
STARTCHAR 003B
ENCODING 59
SWIDTH 360 0
DWIDTH 4 0
BBX 3 8 0 -1
BITMAP
60
00
00
60
60
60
60
80
ENDCHAR
STARTCHAR 003C
ENCODING 60
SWIDTH 540 0
DWIDTH 6 0
BBX 4 7 0 1
BITMAP
10
60
80
80
60
20
10
ENDCHAR
STARTCHAR 003D
ENCODING 61
SWIDTH 540 0
DWIDTH 6 0
BBX 4 4 0 3
BITMAP
F0
00
00
F0
ENDCHAR
STARTCHAR 003E
ENCODING 62
SWIDTH 540 0
DWIDTH 6 0
BBX 4 7 0 1
BITMAP
80
60
20
10
60
80
80
ENDCHAR
STARTCHAR 003F
ENCODING 63
SWIDTH 630 0
DWIDTH 7 0
BBX 6 10 0 0
BITMAP
70
90
8C
0C
10
10
60
00
00
60
ENDCHAR
STARTCHAR 0040
ENCODING 64
SWIDTH 990 0
DWIDTH 11 0
BBX 10 10 0 0
BITMAP
1E00
1E00
6100
8CC0
92C0
92C0
8D00
6000
6000
1E00
ENDCHAR
STARTCHAR 0041
ENCODING 65
SWIDTH 630 0
DWIDTH 7 0
BBX 6 10 0 0
BITMAP
70
90
8C
8C
8C
FC
8C
8C
8C
8C
ENDCHAR
STARTCHAR 0042
ENCODING 66
SWIDTH 630 0
DWIDTH 7 0
BBX 6 10 0 0
BITMAP
F0
90
8C
8C
90
F0
90
8C
8C
F0
ENDCHAR
STARTCHAR 0043
ENCODING 67
SWIDTH 630 0
DWIDTH 7 0
BBX 6 10 0 0
BITMAP
70
90
8C
80
80
80
80
80
8C
70
ENDCHAR
STARTCHAR 0044
ENCODING 68
SWIDTH 630 0
DWIDTH 7 0
BBX 6 10 0 0
BITMAP
F0
90
8C
8C
8C
8C
8C
8C
8C
F0
ENDCHAR
STARTCHAR 0045
ENCODING 69
SWIDTH 540 0
DWIDTH 6 0
BBX 4 10 0 0
BITMAP
F0
80
80
80
80
F0
80
80
80
F0
ENDCHAR
STARTCHAR 0046
ENCODING 70
SWIDTH 540 0
DWIDTH 6 0
BBX 4 10 0 0
BITMAP
F0
80
80
80
80
F0
80
80
80
80
ENDCHAR
STARTCHAR 0047
ENCODING 71
SWIDTH 630 0
DWIDTH 7 0
BBX 6 10 0 0
BITMAP
70
90
8C
80
80
9C
8C
8C
8C
70
ENDCHAR
STARTCHAR 0048
ENCODING 72
SWIDTH 630 0
DWIDTH 7 0
BBX 6 10 0 0
BITMAP
8C
8C
8C
8C
8C
FC
8C
8C
8C
8C
ENDCHAR
STARTCHAR 0049
ENCODING 73
SWIDTH 270 0
DWIDTH 3 0
BBX 1 10 0 0
BITMAP
80
80
80
80
80
80
80
80
80
80
ENDCHAR
STARTCHAR 004A
ENCODING 74
SWIDTH 630 0
DWIDTH 7 0
BBX 6 10 0 0
BITMAP
0C
0C
0C
0C
0C
0C
0C
0C
8C
70
ENDCHAR
STARTCHAR 004B
ENCODING 75
SWIDTH 630 0
DWIDTH 7 0
BBX 6 10 0 0
BITMAP
8C
8C
90
90
A0
E0
90
90
8C
8C
ENDCHAR
STARTCHAR 004C
ENCODING 76
SWIDTH 540 0
DWIDTH 6 0
BBX 4 10 0 0
BITMAP
80
80
80
80
80
80
80
80
80
F0
ENDCHAR
STARTCHAR 004D
ENCODING 77
SWIDTH 720 0
DWIDTH 8 0
BBX 7 10 0 0
BITMAP
82
82
82
EE
92
82
82
82
82
82
ENDCHAR
STARTCHAR 004E
ENCODING 78
SWIDTH 630 0
DWIDTH 7 0
BBX 6 10 0 0
BITMAP
8C
8C
8C
EC
AC
9C
8C
8C
8C
8C
ENDCHAR
STARTCHAR 004F
ENCODING 79
SWIDTH 630 0
DWIDTH 7 0
BBX 6 10 0 0
BITMAP
70
90
8C
8C
8C
8C
8C
8C
8C
70
ENDCHAR
STARTCHAR 0050
ENCODING 80
SWIDTH 630 0
DWIDTH 7 0
BBX 6 10 0 0
BITMAP
F0
90
8C
8C
90
F0
80
80
80
80
ENDCHAR
STARTCHAR 0051
ENCODING 81
SWIDTH 630 0
DWIDTH 7 0
BBX 6 11 0 -1
BITMAP
70
90
8C
8C
8C
8C
8C
8C
8C
70
0C
ENDCHAR
STARTCHAR 0052
ENCODING 82
SWIDTH 630 0
DWIDTH 7 0
BBX 6 10 0 0
BITMAP
F0
90
8C
8C
90
F0
8C
8C
8C
8C
ENDCHAR
STARTCHAR 0053
ENCODING 83
SWIDTH 630 0
DWIDTH 7 0
BBX 6 10 0 0
BITMAP
70
90
8C
80
80
70
10
0C
8C
70
ENDCHAR
STARTCHAR 0054
ENCODING 84
SWIDTH 720 0
DWIDTH 8 0
BBX 7 10 0 0
BITMAP
FE
10
10
10
10
10
10
10
10
10
ENDCHAR
STARTCHAR 0055
ENCODING 85
SWIDTH 630 0
DWIDTH 7 0
BBX 6 10 0 0
BITMAP
8C
8C
8C
8C
8C
8C
8C
8C
8C
70
ENDCHAR
STARTCHAR 0056
ENCODING 86
SWIDTH 720 0
DWIDTH 8 0
BBX 7 10 0 0
BITMAP
82
82
82
82
84
6C
6C
30
10
10
ENDCHAR
STARTCHAR 0057
ENCODING 87
SWIDTH 720 0
DWIDTH 8 0
BBX 7 10 0 0
BITMAP
82
82
82
82
82
82
82
92
92
6C
ENDCHAR
STARTCHAR 0058
ENCODING 88
SWIDTH 630 0
DWIDTH 7 0
BBX 6 10 0 0
BITMAP
8C
8C
8C
8C
90
70
8C
8C
8C
8C
ENDCHAR
STARTCHAR 0059
ENCODING 89
SWIDTH 720 0
DWIDTH 8 0
BBX 7 10 0 0
BITMAP
82
82
84
6C
10
10
10
10
10
10
ENDCHAR
STARTCHAR 005A
ENCODING 90
SWIDTH 540 0
DWIDTH 6 0
BBX 4 10 0 0
BITMAP
F0
10
10
10
60
80
80
80
80
F0
ENDCHAR
STARTCHAR 005B
ENCODING 91
SWIDTH 360 0
DWIDTH 4 0
BBX 3 10 0 0
BITMAP
E0
80
80
80
80
80
80
80
80
E0
ENDCHAR
STARTCHAR 005C
ENCODING 92
SWIDTH 990 0
DWIDTH 11 0
BBX 10 10 0 0
BITMAP
8000
8000
6000
1000
1000
0C00
0200
0200
0100
00C0
ENDCHAR
STARTCHAR 005D
ENCODING 93
SWIDTH 360 0
DWIDTH 4 0
BBX 3 10 0 0
BITMAP
E0
60
60
60
60
60
60
60
60
E0
ENDCHAR
STARTCHAR 005E
ENCODING 94
SWIDTH 540 0
DWIDTH 6 0
BBX 4 3 0 7
BITMAP
60
A0
90
ENDCHAR
STARTCHAR 005F
ENCODING 95
SWIDTH 540 0
DWIDTH 6 0
BBX 4 1 0 0
BITMAP
F0
ENDCHAR
STARTCHAR 0060
ENCODING 96
SWIDTH 360 0
DWIDTH 4 0
BBX 3 3 0 7
BITMAP
80
80
60
ENDCHAR
STARTCHAR 0061
ENCODING 97
SWIDTH 630 0
DWIDTH 7 0
BBX 6 7 0 0
BITMAP
70
8C
8C
8C
8C
8C
7C
ENDCHAR
STARTCHAR 0062
ENCODING 98
SWIDTH 630 0
DWIDTH 7 0
BBX 6 10 0 0
BITMAP
80
80
80
F0
8C
8C
8C
8C
8C
F0
ENDCHAR
STARTCHAR 0063
ENCODING 99
SWIDTH 540 0
DWIDTH 6 0
BBX 4 7 0 0
BITMAP
70
80
80
80
80
80
70
ENDCHAR
STARTCHAR 0064
ENCODING 100
SWIDTH 630 0
DWIDTH 7 0
BBX 6 10 0 0
BITMAP
0C
0C
0C
7C
8C
8C
8C
8C
8C
7C
ENDCHAR
STARTCHAR 0065
ENCODING 101
SWIDTH 630 0
DWIDTH 7 0
BBX 6 7 0 0
BITMAP
70
90
8C
FC
80
80
7C
ENDCHAR
STARTCHAR 0066
ENCODING 102
SWIDTH 360 0
DWIDTH 4 0
BBX 3 10 0 0
BITMAP
60
80
80
E0
80
80
80
80
80
80
ENDCHAR
STARTCHAR 0067
ENCODING 103
SWIDTH 630 0
DWIDTH 7 0
BBX 6 10 0 -3
BITMAP
7C
8C
8C
8C
8C
8C
7C
0C
10
70
ENDCHAR
STARTCHAR 0068
ENCODING 104
SWIDTH 630 0
DWIDTH 7 0
BBX 6 10 0 0
BITMAP
80
80
80
F0
8C
8C
8C
8C
8C
8C
ENDCHAR
STARTCHAR 0069
ENCODING 105
SWIDTH 270 0
DWIDTH 3 0
BBX 1 10 0 0
BITMAP
80
00
00
80
80
80
80
80
80
80
ENDCHAR
STARTCHAR 006A
ENCODING 106
SWIDTH 360 0
DWIDTH 4 0
BBX 3 11 0 -1
BITMAP
60
00
00
60
60
60
60
60
60
60
80
ENDCHAR
STARTCHAR 006B
ENCODING 107
SWIDTH 630 0
DWIDTH 7 0
BBX 6 10 0 0
BITMAP
80
80
80
8C
90
A0
E0
A0
90
8C
ENDCHAR
STARTCHAR 006C
ENCODING 108
SWIDTH 270 0
DWIDTH 3 0
BBX 1 10 0 0
BITMAP
80
80
80
80
80
80
80
80
80
80
ENDCHAR
STARTCHAR 006D
ENCODING 109
SWIDTH 990 0
DWIDTH 11 0
BBX 10 7 0 0
BITMAP
F300
8CC0
8CC0
8CC0
8CC0
8CC0
8CC0
ENDCHAR
STARTCHAR 006E
ENCODING 110
SWIDTH 630 0
DWIDTH 7 0
BBX 6 7 0 0
BITMAP
F0
8C
8C
8C
8C
8C
8C
ENDCHAR
STARTCHAR 006F
ENCODING 111
SWIDTH 630 0
DWIDTH 7 0
BBX 6 7 0 0
BITMAP
70
8C
8C
8C
8C
8C
70
ENDCHAR
STARTCHAR 0070
ENCODING 112
SWIDTH 630 0
DWIDTH 7 0
BBX 6 10 0 -3
BITMAP
F0
8C
8C
8C
8C
8C
F0
80
80
80
ENDCHAR
STARTCHAR 0071
ENCODING 113
SWIDTH 630 0
DWIDTH 7 0
BBX 6 10 0 -3
BITMAP
70
8C
8C
8C
8C
8C
7C
0C
0C
0C
ENDCHAR
STARTCHAR 0072
ENCODING 114
SWIDTH 540 0
DWIDTH 6 0
BBX 4 7 0 0
BITMAP
F0
80
80
80
80
80
80
ENDCHAR
STARTCHAR 0073
ENCODING 115
SWIDTH 540 0
DWIDTH 6 0
BBX 4 7 0 0
BITMAP
70
80
80
60
20
10
E0
ENDCHAR
STARTCHAR 0074
ENCODING 116
SWIDTH 540 0
DWIDTH 6 0
BBX 4 10 0 0
BITMAP
60
60
60
F0
60
60
60
60
60
60
ENDCHAR
STARTCHAR 0075
ENCODING 117
SWIDTH 630 0
DWIDTH 7 0
BBX 6 7 0 0
BITMAP
8C
8C
8C
8C
8C
8C
7C
ENDCHAR
STARTCHAR 0076
ENCODING 118
SWIDTH 630 0
DWIDTH 7 0
BBX 6 7 0 0
BITMAP
8C
8C
8C
8C
8C
8C
70
ENDCHAR
STARTCHAR 0077
ENCODING 119
SWIDTH 720 0
DWIDTH 8 0
BBX 7 7 0 0
BITMAP
82
82
82
82
92
92
6C
ENDCHAR
STARTCHAR 0078
ENCODING 120
SWIDTH 630 0
DWIDTH 7 0
BBX 6 7 0 0
BITMAP
8C
8C
90
70
90
8C
8C
ENDCHAR
STARTCHAR 0079
ENCODING 121
SWIDTH 630 0
DWIDTH 7 0
BBX 6 10 0 -3
BITMAP
8C
8C
8C
8C
8C
8C
7C
0C
10
70
ENDCHAR
STARTCHAR 007A
ENCODING 122
SWIDTH 540 0
DWIDTH 6 0
BBX 4 7 0 0
BITMAP
F0
10
20
60
80
80
F0
ENDCHAR
STARTCHAR 007B
ENCODING 123
SWIDTH 630 0
DWIDTH 7 0
BBX 6 10 0 0
BITMAP
1C
20
60
60
60
E0
60
60
60
1C
ENDCHAR
STARTCHAR 007C
ENCODING 124
SWIDTH 270 0
DWIDTH 3 0
BBX 1 10 0 0
BITMAP
80
80
80
80
80
80
80
80
80
80
ENDCHAR
STARTCHAR 007D
ENCODING 125
SWIDTH 630 0
DWIDTH 7 0
BBX 6 10 0 0
BITMAP
E0
20
10
10
10
1C
10
10
10
E0
ENDCHAR
STARTCHAR 007E
ENCODING 126
SWIDTH 630 0
DWIDTH 7 0
BBX 6 3 0 3
BITMAP
6C
B0
90
ENDCHAR
STARTCHAR 00A1
ENCODING 161
SWIDTH 270 0
DWIDTH 3 0
BBX 1 10 0 0
BITMAP
80
00
00
80
80
80
80
80
80
80
ENDCHAR
STARTCHAR 00A2
ENCODING 162
SWIDTH 630 0
DWIDTH 7 0
BBX 6 10 0 0
BITMAP
10
10
7C
90
90
90
90
90
7C
10
ENDCHAR
STARTCHAR 00A3
ENCODING 163
SWIDTH 720 0
DWIDTH 8 0
BBX 7 10 0 0
BITMAP
1C
24
62
60
60
F0
60
60
60
FC
ENDCHAR
STARTCHAR 00A5
ENCODING 165
SWIDTH 720 0
DWIDTH 8 0
BBX 7 11 0 -1
BITMAP
82
84
6C
6C
10
10
7C
10
10
7C
10
ENDCHAR
STARTCHAR 00A6
ENCODING 166
SWIDTH 270 0
DWIDTH 3 0
BBX 1 10 0 0
BITMAP
80
80
80
80
00
00
80
80
80
80
ENDCHAR
STARTCHAR 00A7
ENCODING 167
SWIDTH 540 0
DWIDTH 6 0
BBX 4 13 0 0
BITMAP
60
A0
90
80
80
60
90
A0
60
10
10
90
60
ENDCHAR
STARTCHAR 00A8
ENCODING 168
SWIDTH 540 0
DWIDTH 6 0
BBX 4 2 0 8
BITMAP
90
90
ENDCHAR
STARTCHAR 00A9
ENCODING 169
SWIDTH 900 0
DWIDTH 10 0
BBX 8 10 0 0
BITMAP
7E
82
81
9D
91
91
9D
81
81
7E
ENDCHAR
STARTCHAR 00AA
ENCODING 170
SWIDTH 630 0
DWIDTH 7 0
BBX 6 10 0 0
BITMAP
70
90
8C
8C
8C
8C
7C
00
00
FC
ENDCHAR
STARTCHAR 00AB
ENCODING 171
SWIDTH 720 0
DWIDTH 8 0
BBX 7 7 0 1
BITMAP
12
6C
B0
90
6C
34
12
ENDCHAR
STARTCHAR 00AC
ENCODING 172
SWIDTH 630 0
DWIDTH 7 0
BBX 6 3 0 1
BITMAP
FC
0C
0C
ENDCHAR
STARTCHAR 00AE
ENCODING 174
SWIDTH 990 0
DWIDTH 11 0
BBX 10 11 0 0
BITMAP
7F00
80C0
80C0
9CC0
92C0
94C0
9CC0
92C0
80C0
80C0
7F00
ENDCHAR
STARTCHAR 00AF
ENCODING 175
SWIDTH 630 0
DWIDTH 7 0
BBX 6 2 0 8
BITMAP
FC
FC
ENDCHAR
STARTCHAR 00B0
ENCODING 176
SWIDTH 540 0
DWIDTH 6 0
BBX 4 4 0 6
BITMAP
60
A0
90
60
ENDCHAR
STARTCHAR 00B1
ENCODING 177
SWIDTH 540 0
DWIDTH 6 0
BBX 4 7 0 1
BITMAP
60
F0
60
00
00
00
F0
ENDCHAR
STARTCHAR 00B3
ENCODING 179
SWIDTH 540 0
DWIDTH 6 0
BBX 4 7 0 1
BITMAP
E0
10
20
60
10
20
E0
ENDCHAR
STARTCHAR 00B4
ENCODING 180
SWIDTH 360 0
DWIDTH 4 0
BBX 3 3 0 7
BITMAP
60
80
80
ENDCHAR
STARTCHAR 00B5
ENCODING 181
SWIDTH 720 0
DWIDTH 8 0
BBX 7 11 0 -1
BITMAP
8C
8C
8C
8C
8C
8C
8C
90
F0
8C
02
ENDCHAR
STARTCHAR 00B6
ENCODING 182
SWIDTH 990 0
DWIDTH 11 0
BBX 10 10 0 0
BITMAP
7FC0
7D00
FD00
FD00
7D00
7D00
0D00
0D00
0D00
0D00
ENDCHAR
STARTCHAR 00B7
ENCODING 183
SWIDTH 270 0
DWIDTH 3 0
BBX 1 2 0 4
BITMAP
80
80
ENDCHAR
STARTCHAR 00B8
ENCODING 184
SWIDTH 540 0
DWIDTH 6 0
BBX 4 6 0 0
BITMAP
60
20
10
20
60
80
ENDCHAR
STARTCHAR 00B9
ENCODING 185
SWIDTH 360 0
DWIDTH 4 0
BBX 3 6 0 4
BITMAP
60
60
E0
60
60
60
ENDCHAR
STARTCHAR 00BA
ENCODING 186
SWIDTH 540 0
DWIDTH 6 0
BBX 4 4 0 6
BITMAP
60
A0
90
60
ENDCHAR
STARTCHAR 00BB
ENCODING 187
SWIDTH 630 0
DWIDTH 7 0
BBX 6 4 0 3
BITMAP
90
B0
6C
90
ENDCHAR
STARTCHAR 00BC
ENCODING 188
SWIDTH 1170 0
DWIDTH 13 0
BBX 11 8 0 0
BITMAP
6200
E200
6600
6D00
6D00
3120
11E0
1020
ENDCHAR
STARTCHAR 00BD
ENCODING 189
SWIDTH 1170 0
DWIDTH 13 0
BBX 11 8 0 0
BITMAP
6200
E200
6CC0
6D40
6D20
3140
10C0
11E0
ENDCHAR
STARTCHAR 00BE
ENCODING 190
SWIDTH 1170 0
DWIDTH 13 0
BBX 11 8 0 0
BITMAP
8200
6200
8D00
8D00
6D20
B120
91E0
1020
ENDCHAR
STARTCHAR 00BF
ENCODING 191
SWIDTH 630 0
DWIDTH 7 0
BBX 6 10 0 0
BITMAP
10
00
00
10
20
60
80
80
8C
70
ENDCHAR
STARTCHAR 00C0
ENCODING 192
SWIDTH 630 0
DWIDTH 7 0
BBX 6 14 0 0
BITMAP
60
10
00
00
70
90
8C
8C
8C
FC
8C
8C
8C
8C
ENDCHAR
STARTCHAR 00C1
ENCODING 193
SWIDTH 630 0
DWIDTH 7 0
BBX 6 14 0 0
BITMAP
10
60
00
00
70
90
8C
8C
8C
FC
8C
8C
8C
8C
ENDCHAR
STARTCHAR 00C2
ENCODING 194
SWIDTH 630 0
DWIDTH 7 0
BBX 6 14 0 0
BITMAP
70
8C
00
00
70
90
8C
8C
8C
FC
8C
8C
8C
8C
ENDCHAR
STARTCHAR 00C3
ENCODING 195
SWIDTH 630 0
DWIDTH 7 0
BBX 6 14 0 0
BITMAP
6C
90
00
00
70
90
8C
8C
8C
FC
8C
8C
8C
8C
ENDCHAR
STARTCHAR 00C4
ENCODING 196
SWIDTH 630 0
DWIDTH 7 0
BBX 6 13 0 0
BITMAP
8C
00
00
70
90
8C
8C
8C
FC
8C
8C
8C
8C
ENDCHAR
STARTCHAR 00C5
ENCODING 197
SWIDTH 630 0
DWIDTH 7 0
BBX 6 15 0 0
BITMAP
60
90
60
00
00
70
90
8C
8C
8C
FC
8C
8C
8C
8C
ENDCHAR
STARTCHAR 00C6
ENCODING 198
SWIDTH 900 0
DWIDTH 10 0
BBX 8 10 0 0
BITMAP
73
94
8C
8C
8C
FF
8C
8C
8C
8F
ENDCHAR
STARTCHAR 00C7
ENCODING 199
SWIDTH 630 0
DWIDTH 7 0
BBX 6 14 0 -3
BITMAP
70
8C
80
80
80
80
80
8C
90
70
0C
10
20
60
ENDCHAR
STARTCHAR 00C8
ENCODING 200
SWIDTH 540 0
DWIDTH 6 0
BBX 4 14 0 0
BITMAP
80
60
00
00
F0
80
80
80
80
F0
80
80
80
F0
ENDCHAR
STARTCHAR 00C9
ENCODING 201
SWIDTH 540 0
DWIDTH 6 0
BBX 4 14 0 0
BITMAP
10
60
00
00
F0
80
80
80
80
F0
80
80
80
F0
ENDCHAR
STARTCHAR 00CA
ENCODING 202
SWIDTH 540 0
DWIDTH 6 0
BBX 4 14 0 0
BITMAP
60
90
00
00
F0
80
80
80
80
F0
80
80
80
F0
ENDCHAR
STARTCHAR 00CB
ENCODING 203
SWIDTH 540 0
DWIDTH 6 0
BBX 4 13 0 0
BITMAP
90
00
00
F0
80
80
80
80
F0
80
80
80
F0
ENDCHAR
STARTCHAR 00CC
ENCODING 204
SWIDTH 360 0
DWIDTH 4 0
BBX 3 10 0 0
BITMAP
80
80
60
00
60
60
60
60
60
60
ENDCHAR
STARTCHAR 00CD
ENCODING 205
SWIDTH 360 0
DWIDTH 4 0
BBX 3 10 0 0
BITMAP
60
80
80
00
80
80
80
80
80
80
ENDCHAR
STARTCHAR 00CE
ENCODING 206
SWIDTH 540 0
DWIDTH 6 0
BBX 4 11 0 0
BITMAP
60
90
00
00
60
60
60
60
60
60
60
ENDCHAR
STARTCHAR 00CF
ENCODING 207
SWIDTH 540 0
DWIDTH 6 0
BBX 4 10 0 0
BITMAP
90
00
00
60
60
60
60
60
60
60
ENDCHAR
STARTCHAR 00D0
ENCODING 208
SWIDTH 720 0
DWIDTH 8 0
BBX 7 10 0 0
BITMAP
7C
64
62
62
F2
62
62
62
62
7C
ENDCHAR
STARTCHAR 00D1
ENCODING 209
SWIDTH 630 0
DWIDTH 7 0
BBX 6 14 0 0
BITMAP
6C
90
00
00
8C
8C
8C
EC
AC
9C
8C
8C
8C
8C
ENDCHAR
STARTCHAR 00D2
ENCODING 210
SWIDTH 630 0
DWIDTH 7 0
BBX 6 14 0 0
BITMAP
60
10
00
00
70
90
8C
8C
8C
8C
8C
8C
8C
70
ENDCHAR
STARTCHAR 00D3
ENCODING 211
SWIDTH 630 0
DWIDTH 7 0
BBX 6 14 0 0
BITMAP
10
60
00
00
70
90
8C
8C
8C
8C
8C
8C
8C
70
ENDCHAR
STARTCHAR 00D4
ENCODING 212
SWIDTH 630 0
DWIDTH 7 0
BBX 6 14 0 0
BITMAP
70
8C
00
00
70
90
8C
8C
8C
8C
8C
8C
8C
70
ENDCHAR
STARTCHAR 00D5
ENCODING 213
SWIDTH 630 0
DWIDTH 7 0
BBX 6 14 0 0
BITMAP
6C
90
00
00
70
90
8C
8C
8C
8C
8C
8C
8C
70
ENDCHAR
STARTCHAR 00D6
ENCODING 214
SWIDTH 630 0
DWIDTH 7 0
BBX 6 13 0 0
BITMAP
8C
00
00
70
90
8C
8C
8C
8C
8C
8C
8C
70
ENDCHAR
STARTCHAR 00D7
ENCODING 215
SWIDTH 900 0
DWIDTH 10 0
BBX 8 8 0 0
BITMAP
81
62
24
1C
1C
24
62
81
ENDCHAR
STARTCHAR 00D8
ENCODING 216
SWIDTH 900 0
DWIDTH 10 0
BBX 8 8 0 0
BITMAP
1D
62
6E
72
72
62
62
9C
ENDCHAR
STARTCHAR 00D9
ENCODING 217
SWIDTH 630 0
DWIDTH 7 0
BBX 6 14 0 0
BITMAP
60
10
00
00
8C
8C
8C
8C
8C
8C
8C
8C
8C
70
ENDCHAR
STARTCHAR 00DA
ENCODING 218
SWIDTH 630 0
DWIDTH 7 0
BBX 6 14 0 0
BITMAP
10
60
00
00
8C
8C
8C
8C
8C
8C
8C
8C
8C
70
ENDCHAR
STARTCHAR 00DB
ENCODING 219
SWIDTH 630 0
DWIDTH 7 0
BBX 6 14 0 0
BITMAP
70
8C
00
00
8C
8C
8C
8C
8C
8C
8C
8C
8C
70
ENDCHAR
STARTCHAR 00DC
ENCODING 220
SWIDTH 630 0
DWIDTH 7 0
BBX 6 13 0 0
BITMAP
8C
00
00
8C
8C
8C
8C
8C
8C
8C
8C
8C
70
ENDCHAR
STARTCHAR 00DD
ENCODING 221
SWIDTH 720 0
DWIDTH 8 0
BBX 7 14 0 0
BITMAP
10
60
00
00
82
82
84
6C
10
10
10
10
10
10
ENDCHAR
STARTCHAR 00DE
ENCODING 222
SWIDTH 720 0
DWIDTH 8 0
BBX 7 10 0 0
BITMAP
80
80
80
FC
84
82
82
84
FC
80
ENDCHAR
STARTCHAR 00DF
ENCODING 223
SWIDTH 630 0
DWIDTH 7 0
BBX 6 10 0 0
BITMAP
70
70
8C
8C
90
90
8C
8C
8C
90
ENDCHAR
STARTCHAR 00E0
ENCODING 224
SWIDTH 630 0
DWIDTH 7 0
BBX 6 11 0 0
BITMAP
60
10
00
00
70
8C
8C
8C
8C
8C
7C
ENDCHAR
STARTCHAR 00E1
ENCODING 225
SWIDTH 630 0
DWIDTH 7 0
BBX 6 11 0 0
BITMAP
10
60
00
00
70
8C
8C
8C
8C
8C
7C
ENDCHAR
STARTCHAR 00E2
ENCODING 226
SWIDTH 630 0
DWIDTH 7 0
BBX 6 11 0 0
BITMAP
70
8C
00
00
70
8C
8C
8C
8C
8C
7C
ENDCHAR
STARTCHAR 00E3
ENCODING 227
SWIDTH 630 0
DWIDTH 7 0
BBX 6 11 0 0
BITMAP
6C
90
00
00
70
8C
8C
8C
8C
8C
7C
ENDCHAR
STARTCHAR 00E4
ENCODING 228
SWIDTH 630 0
DWIDTH 7 0
BBX 6 10 0 0
BITMAP
6C
00
00
7C
8C
8C
8C
8C
8C
7C
ENDCHAR
STARTCHAR 00E5
ENCODING 229
SWIDTH 630 0
DWIDTH 7 0
BBX 6 13 0 0
BITMAP
70
70
8C
70
70
00
70
8C
8C
8C
8C
8C
7C
ENDCHAR
STARTCHAR 00E6
ENCODING 230
SWIDTH 990 0
DWIDTH 11 0
BBX 10 7 0 0
BITMAP
7300
9500
8CC0
8FC0
8C00
8C00
7FC0
ENDCHAR
STARTCHAR 00E7
ENCODING 231
SWIDTH 540 0
DWIDTH 6 0
BBX 4 9 0 -1
BITMAP
70
80
80
80
80
80
70
10
60
ENDCHAR
STARTCHAR 00E8
ENCODING 232
SWIDTH 630 0
DWIDTH 7 0
BBX 6 11 0 0
BITMAP
60
10
00
00
70
90
8C
FC
80
80
7C
ENDCHAR
STARTCHAR 00E9
ENCODING 233
SWIDTH 630 0
DWIDTH 7 0
BBX 6 11 0 0
BITMAP
10
60
00
00
70
90
8C
FC
80
80
7C
ENDCHAR
STARTCHAR 00EA
ENCODING 234
SWIDTH 630 0
DWIDTH 7 0
BBX 6 11 0 0
BITMAP
70
8C
00
00
70
90
8C
FC
80
80
7C
ENDCHAR
STARTCHAR 00EB
ENCODING 235
SWIDTH 630 0
DWIDTH 7 0
BBX 6 10 0 0
BITMAP
8C
00
00
70
90
8C
FC
80
80
7C
ENDCHAR
STARTCHAR 00EC
ENCODING 236
SWIDTH 360 0
DWIDTH 4 0
BBX 3 11 0 0
BITMAP
80
60
00
00
60
60
60
60
60
60
60
ENDCHAR
STARTCHAR 00ED
ENCODING 237
SWIDTH 360 0
DWIDTH 4 0
BBX 3 11 0 0
BITMAP
60
80
00
00
80
80
80
80
80
80
80
ENDCHAR
STARTCHAR 00EE
ENCODING 238
SWIDTH 540 0
DWIDTH 6 0
BBX 4 11 0 0
BITMAP
60
90
00
00
60
60
60
60
60
60
60
ENDCHAR
STARTCHAR 00EF
ENCODING 239
SWIDTH 540 0
DWIDTH 6 0
BBX 4 10 0 0
BITMAP
90
00
00
60
60
60
60
60
60
60
ENDCHAR
STARTCHAR 00F0
ENCODING 240
SWIDTH 630 0
DWIDTH 7 0
BBX 6 13 0 0
BITMAP
60
10
10
60
80
80
70
8C
8C
8C
8C
8C
70
ENDCHAR
STARTCHAR 00F1
ENCODING 241
SWIDTH 630 0
DWIDTH 7 0
BBX 6 11 0 0
BITMAP
6C
90
00
00
F0
8C
8C
8C
8C
8C
8C
ENDCHAR
STARTCHAR 00F2
ENCODING 242
SWIDTH 630 0
DWIDTH 7 0
BBX 6 11 0 0
BITMAP
60
10
00
00
70
8C
8C
8C
8C
8C
70
ENDCHAR
STARTCHAR 00F3
ENCODING 243
SWIDTH 630 0
DWIDTH 7 0
BBX 6 11 0 0
BITMAP
10
60
00
00
70
8C
8C
8C
8C
8C
70
ENDCHAR
STARTCHAR 00F4
ENCODING 244
SWIDTH 630 0
DWIDTH 7 0
BBX 6 11 0 0
BITMAP
70
8C
00
00
70
8C
8C
8C
8C
8C
70
ENDCHAR
STARTCHAR 00F5
ENCODING 245
SWIDTH 630 0
DWIDTH 7 0
BBX 6 11 0 0
BITMAP
6C
90
00
00
70
8C
8C
8C
8C
8C
70
ENDCHAR
STARTCHAR 00F6
ENCODING 246
SWIDTH 630 0
DWIDTH 7 0
BBX 6 10 0 0
BITMAP
8C
00
00
70
8C
8C
8C
8C
8C
70
ENDCHAR
STARTCHAR 00F7
ENCODING 247
SWIDTH 720 0
DWIDTH 8 0
BBX 7 7 0 1
BITMAP
10
00
00
FE
00
00
10
ENDCHAR
STARTCHAR 00F8
ENCODING 248
SWIDTH 900 0
DWIDTH 10 0
BBX 8 8 0 0
BITMAP
1D
62
6E
72
72
62
62
9C
ENDCHAR
STARTCHAR 00F9
ENCODING 249
SWIDTH 630 0
DWIDTH 7 0
BBX 6 11 0 0
BITMAP
60
10
00
00
8C
8C
8C
8C
8C
8C
7C
ENDCHAR
STARTCHAR 00FA
ENCODING 250
SWIDTH 630 0
DWIDTH 7 0
BBX 6 11 0 0
BITMAP
10
60
00
00
8C
8C
8C
8C
8C
8C
7C
ENDCHAR
STARTCHAR 00FB
ENCODING 251
SWIDTH 630 0
DWIDTH 7 0
BBX 6 11 0 0
BITMAP
70
8C
00
00
8C
8C
8C
8C
8C
8C
7C
ENDCHAR
STARTCHAR 00FC
ENCODING 252
SWIDTH 630 0
DWIDTH 7 0
BBX 6 10 0 0
BITMAP
8C
00
00
CC
CC
CC
CC
CC
CC
7C
ENDCHAR
STARTCHAR 00FD
ENCODING 253
SWIDTH 630 0
DWIDTH 7 0
BBX 6 14 0 -3
BITMAP
10
60
00
00
8C
8C
8C
8C
8C
8C
7C
0C
10
70
ENDCHAR
STARTCHAR 00FE
ENCODING 254
SWIDTH 630 0
DWIDTH 7 0
BBX 6 10 0 0
BITMAP
80
80
80
F0
90
8C
8C
90
F0
80
ENDCHAR
STARTCHAR 00FF
ENCODING 255
SWIDTH 630 0
DWIDTH 7 0
BBX 6 13 0 -3
BITMAP
8C
00
00
8C
8C
8C
8C
8C
8C
7C
0C
10
70
ENDCHAR
STARTCHAR 0100
ENCODING 256
SWIDTH 630 0
DWIDTH 7 0
BBX 6 13 0 0
BITMAP
70
00
00
70
90
8C
8C
8C
FC
8C
8C
8C
8C
ENDCHAR
STARTCHAR 0101
ENCODING 257
SWIDTH 630 0
DWIDTH 7 0
BBX 6 10 0 0
BITMAP
70
00
00
70
8C
8C
8C
8C
8C
7C
ENDCHAR
STARTCHAR 0102
ENCODING 258
SWIDTH 630 0
DWIDTH 7 0
BBX 6 14 0 0
BITMAP
8C
70
00
00
70
90
8C
8C
8C
FC
8C
8C
8C
8C
ENDCHAR
STARTCHAR 0103
ENCODING 259
SWIDTH 630 0
DWIDTH 7 0
BBX 6 11 0 0
BITMAP
8C
70
00
00
70
8C
8C
8C
8C
8C
7C
ENDCHAR
STARTCHAR 0104
ENCODING 260
SWIDTH 630 0
DWIDTH 7 0
BBX 6 12 0 -1
BITMAP
70
8C
8C
8C
FC
8C
8C
8C
8C
8C
10
0C
ENDCHAR
STARTCHAR 0105
ENCODING 261
SWIDTH 630 0
DWIDTH 7 0
BBX 6 9 0 -1
BITMAP
70
8C
8C
8C
8C
8C
7C
10
0C
ENDCHAR
STARTCHAR 0106
ENCODING 262
SWIDTH 630 0
DWIDTH 7 0
BBX 6 14 0 0
BITMAP
10
60
00
00
70
90
8C
80
80
80
80
80
8C
70
ENDCHAR
STARTCHAR 0107
ENCODING 263
SWIDTH 540 0
DWIDTH 6 0
BBX 4 11 0 0
BITMAP
10
60
00
00
70
80
80
80
80
80
70
ENDCHAR
STARTCHAR 0108
ENCODING 264
SWIDTH 630 0
DWIDTH 7 0
BBX 6 14 0 0
BITMAP
70
8C
00
00
70
90
8C
80
80
80
80
80
8C
70
ENDCHAR
STARTCHAR 0109
ENCODING 265
SWIDTH 540 0
DWIDTH 6 0
BBX 4 11 0 0
BITMAP
60
90
00
00
70
80
80
80
80
80
70
ENDCHAR
STARTCHAR 010A
ENCODING 266
SWIDTH 630 0
DWIDTH 7 0
BBX 6 13 0 0
BITMAP
60
00
00
70
90
8C
80
80
80
80
80
8C
70
ENDCHAR
STARTCHAR 010B
ENCODING 267
SWIDTH 540 0
DWIDTH 6 0
BBX 4 10 0 0
BITMAP
60
00
00
70
80
80
80
80
80
70
ENDCHAR
STARTCHAR 010C
ENCODING 268
SWIDTH 630 0
DWIDTH 7 0
BBX 6 14 0 0
BITMAP
8C
70
00
00
70
90
8C
80
80
80
80
80
8C
70
ENDCHAR
STARTCHAR 010D
ENCODING 269
SWIDTH 540 0
DWIDTH 6 0
BBX 4 11 0 0
BITMAP
90
60
00
00
70
80
80
80
80
80
70
ENDCHAR
STARTCHAR 010E
ENCODING 270
SWIDTH 630 0
DWIDTH 7 0
BBX 6 14 0 0
BITMAP
8C
70
00
00
F0
90
8C
8C
8C
8C
8C
8C
8C
F0
ENDCHAR
STARTCHAR 0110
ENCODING 272
SWIDTH 720 0
DWIDTH 8 0
BBX 7 10 0 0
BITMAP
7C
64
62
62
F2
62
62
62
62
7C
ENDCHAR
STARTCHAR 0112
ENCODING 274
SWIDTH 540 0
DWIDTH 6 0
BBX 4 13 0 0
BITMAP
F0
00
00
F0
80
80
80
80
F0
80
80
80
F0
ENDCHAR
STARTCHAR 0113
ENCODING 275
SWIDTH 630 0
DWIDTH 7 0
BBX 6 10 0 0
BITMAP
70
00
00
70
90
8C
FC
80
80
7C
ENDCHAR
STARTCHAR 0114
ENCODING 276
SWIDTH 540 0
DWIDTH 6 0
BBX 4 14 0 0
BITMAP
90
60
00
00
F0
80
80
80
80
F0
80
80
80
F0
ENDCHAR
STARTCHAR 0115
ENCODING 277
SWIDTH 630 0
DWIDTH 7 0
BBX 6 11 0 0
BITMAP
8C
70
00
00
70
90
8C
FC
80
80
7C
ENDCHAR
STARTCHAR 0116
ENCODING 278
SWIDTH 540 0
DWIDTH 6 0
BBX 4 13 0 0
BITMAP
60
00
00
F0
80
80
80
80
F0
80
80
80
F0
ENDCHAR
STARTCHAR 0117
ENCODING 279
SWIDTH 630 0
DWIDTH 7 0
BBX 6 10 0 0
BITMAP
60
00
00
70
90
8C
FC
80
80
7C
ENDCHAR
STARTCHAR 0118
ENCODING 280
SWIDTH 540 0
DWIDTH 6 0
BBX 4 13 0 -3
BITMAP
F0
80
80
80
F0
80
80
80
80
F0
60
60
70
ENDCHAR
STARTCHAR 0119
ENCODING 281
SWIDTH 630 0
DWIDTH 7 0
BBX 6 10 0 -3
BITMAP
70
90
8C
FC
80
80
7C
10
10
1C
ENDCHAR
STARTCHAR 011A
ENCODING 282
SWIDTH 540 0
DWIDTH 6 0
BBX 4 14 0 0
BITMAP
90
60
00
00
F0
80
80
80
80
F0
80
80
80
F0
ENDCHAR
STARTCHAR 011B
ENCODING 283
SWIDTH 630 0
DWIDTH 7 0
BBX 6 11 0 0
BITMAP
8C
70
00
00
70
90
8C
FC
80
80
7C
ENDCHAR
STARTCHAR 011C
ENCODING 284
SWIDTH 630 0
DWIDTH 7 0
BBX 6 14 0 0
BITMAP
70
8C
00
00
70
90
8C
80
80
9C
8C
8C
8C
70
ENDCHAR
STARTCHAR 011D
ENCODING 285
SWIDTH 630 0
DWIDTH 7 0
BBX 6 14 0 -3
BITMAP
70
8C
00
00
7C
8C
8C
8C
8C
8C
7C
0C
10
70
ENDCHAR
STARTCHAR 011E
ENCODING 286
SWIDTH 630 0
DWIDTH 7 0
BBX 6 14 0 0
BITMAP
8C
70
00
00
70
90
8C
80
80
9C
8C
8C
8C
70
ENDCHAR
STARTCHAR 011F
ENCODING 287
SWIDTH 630 0
DWIDTH 7 0
BBX 6 14 0 -3
BITMAP
8C
70
00
00
7C
8C
8C
8C
8C
8C
7C
0C
10
70
ENDCHAR
STARTCHAR 0120
ENCODING 288
SWIDTH 630 0
DWIDTH 7 0
BBX 6 13 0 0
BITMAP
60
00
00
70
90
8C
80
80
9C
8C
8C
8C
70
ENDCHAR
STARTCHAR 0121
ENCODING 289
SWIDTH 630 0
DWIDTH 7 0
BBX 6 13 0 -3
BITMAP
10
00
00
7C
8C
8C
8C
8C
8C
7C
0C
10
70
ENDCHAR
STARTCHAR 0122
ENCODING 290
SWIDTH 630 0
DWIDTH 7 0
BBX 6 13 0 -3
BITMAP
70
90
8C
80
9C
8C
8C
8C
8C
70
10
10
70
ENDCHAR
STARTCHAR 0123
ENCODING 291
SWIDTH 630 0
DWIDTH 7 0
BBX 6 16 0 -3
BITMAP
0C
10
10
10
00
00
7C
8C
8C
8C
8C
8C
7C
0C
10
70
ENDCHAR
STARTCHAR 0124
ENCODING 292
SWIDTH 540 0
DWIDTH 6 0
BBX 4 11 0 0
BITMAP
60
90
00
00
90
90
90
F0
90
90
90
ENDCHAR
STARTCHAR 0128
ENCODING 296
SWIDTH 630 0
DWIDTH 7 0
BBX 6 11 0 0
BITMAP
6C
90
00
00
10
10
10
10
10
10
10
ENDCHAR
STARTCHAR 015C
ENCODING 348
SWIDTH 990 0
DWIDTH 11 0
BBX 0 0 0 0
BITMAP
ENDCHAR
STARTCHAR 02C9
ENCODING 713
SWIDTH 630 0
DWIDTH 7 0
BBX 6 2 0 8
BITMAP
FC
FC
ENDCHAR
STARTCHAR 0395
ENCODING 917
SWIDTH 540 0
DWIDTH 6 0
BBX 4 10 0 0
BITMAP
F0
80
80
80
80
E0
80
80
80
F0
ENDCHAR
STARTCHAR 0396
ENCODING 918
SWIDTH 540 0
DWIDTH 6 0
BBX 4 10 0 0
BITMAP
F0
10
10
10
60
80
80
80
80
F0
ENDCHAR
STARTCHAR 0397
ENCODING 919
SWIDTH 630 0
DWIDTH 7 0
BBX 6 10 0 0
BITMAP
8C
8C
8C
8C
8C
FC
8C
8C
8C
8C
ENDCHAR
STARTCHAR 0399
ENCODING 921
SWIDTH 270 0
DWIDTH 3 0
BBX 1 10 0 0
BITMAP
80
80
80
80
80
80
80
80
80
80
ENDCHAR
STARTCHAR 039A
ENCODING 922
SWIDTH 630 0
DWIDTH 7 0
BBX 6 10 0 0
BITMAP
8C
8C
90
90
A0
E0
90
90
8C
8C
ENDCHAR
STARTCHAR 039B
ENCODING 923
SWIDTH 720 0
DWIDTH 8 0
BBX 7 10 0 0
BITMAP
10
10
10
6C
6C
6C
82
82
82
82
ENDCHAR
STARTCHAR 039C
ENCODING 924
SWIDTH 720 0
DWIDTH 8 0
BBX 7 10 0 0
BITMAP
82
82
82
EE
92
82
82
82
82
82
ENDCHAR
STARTCHAR 039D
ENCODING 925
SWIDTH 630 0
DWIDTH 7 0
BBX 6 10 0 0
BITMAP
8C
8C
8C
EC
AC
9C
8C
8C
8C
8C
ENDCHAR
STARTCHAR 039E
ENCODING 926
SWIDTH 630 0
DWIDTH 7 0
BBX 6 7 0 1
BITMAP
FC
00
00
70
00
00
FC
ENDCHAR
STARTCHAR 039F
ENCODING 927
SWIDTH 720 0
DWIDTH 8 0
BBX 7 10 0 0
BITMAP
7C
84
82
82
82
82
82
82
82
7C
ENDCHAR
STARTCHAR 03A0
ENCODING 928
SWIDTH 630 0
DWIDTH 7 0
BBX 6 10 0 0
BITMAP
FC
8C
8C
8C
8C
8C
8C
8C
8C
8C
ENDCHAR
STARTCHAR 03A1
ENCODING 929
SWIDTH 630 0
DWIDTH 7 0
BBX 6 10 0 0
BITMAP
F0
90
8C
8C
90
F0
80
80
80
80
ENDCHAR
STARTCHAR 03A3
ENCODING 931
SWIDTH 540 0
DWIDTH 6 0
BBX 4 10 0 0
BITMAP
F0
80
80
60
20
10
60
80
80
F0
ENDCHAR
STARTCHAR 03A4
ENCODING 932
SWIDTH 720 0
DWIDTH 8 0
BBX 7 10 0 0
BITMAP
FE
10
10
10
10
10
10
10
10
10
ENDCHAR
STARTCHAR 03A5
ENCODING 933
SWIDTH 720 0
DWIDTH 8 0
BBX 7 10 0 0
BITMAP
82
82
84
6C
10
10
10
10
10
10
ENDCHAR
STARTCHAR 03A6
ENCODING 934
SWIDTH 630 0
DWIDTH 7 0
BBX 6 10 0 0
BITMAP
10
10
7C
90
90
90
90
90
7C
10
ENDCHAR
STARTCHAR 03A7
ENCODING 935
SWIDTH 1170 0
DWIDTH 13 0
BBX 11 11 0 -1
BITMAP
8020
8040
60C0
1100
1200
0E00
0E00
1200
1100
60C0
8020
ENDCHAR
STARTCHAR 03A8
ENCODING 936
SWIDTH 720 0
DWIDTH 8 0
BBX 7 10 0 0
BITMAP
92
92
94
7C
10
10
10
10
10
10
ENDCHAR
STARTCHAR 03A9
ENCODING 937
SWIDTH 720 0
DWIDTH 8 0
BBX 7 8 0 0
BITMAP
7C
82
82
82
82
84
6C
EE
ENDCHAR
STARTCHAR 03AA
ENCODING 938
SWIDTH 540 0
DWIDTH 6 0
BBX 4 10 0 0
BITMAP
90
00
00
60
60
60
60
60
60
60
ENDCHAR
STARTCHAR 03BC
ENCODING 956
SWIDTH 720 0
DWIDTH 8 0
BBX 7 11 0 -1
BITMAP
8C
8C
8C
8C
8C
8C
8C
90
F0
8C
02
ENDCHAR
STARTCHAR 0405
ENCODING 1029
SWIDTH 630 0
DWIDTH 7 0
BBX 6 10 0 0
BITMAP
70
90
8C
80
80
70
10
0C
8C
70
ENDCHAR
STARTCHAR 041F
ENCODING 1055
SWIDTH 630 0
DWIDTH 7 0
BBX 6 10 0 0
BITMAP
FC
8C
8C
8C
8C
8C
8C
8C
8C
8C
ENDCHAR
STARTCHAR 0421
ENCODING 1057
SWIDTH 720 0
DWIDTH 8 0
BBX 7 10 0 0
BITMAP
7C
84
82
80
80
80
80
80
82
7C
ENDCHAR
STARTCHAR 0422
ENCODING 1058
SWIDTH 720 0
DWIDTH 8 0
BBX 7 10 0 0
BITMAP
FE
10
10
10
10
10
10
10
10
10
ENDCHAR
STARTCHAR 0428
ENCODING 1064
SWIDTH 720 0
DWIDTH 8 0
BBX 7 10 0 0
BITMAP
92
92
92
92
92
92
92
92
92
FE
ENDCHAR
STARTCHAR 0470
ENCODING 1136
SWIDTH 720 0
DWIDTH 8 0
BBX 7 10 0 0
BITMAP
92
92
94
7C
10
10
10
10
10
10
ENDCHAR
STARTCHAR 2010
ENCODING 8208
SWIDTH 540 0
DWIDTH 6 0
BBX 4 2 0 4
BITMAP
F0
F0
ENDCHAR
STARTCHAR 2122
ENCODING 8482
SWIDTH 1260 0
DWIDTH 14 0
BBX 13 6 0 4
BITMAP
F218
6218
6338
62D8
6218
6218
ENDCHAR
STARTCHAR 2126
ENCODING 8486
SWIDTH 720 0
DWIDTH 8 0
BBX 7 8 0 0
BITMAP
7C
82
82
82
82
84
6C
EE
ENDCHAR
STARTCHAR 2219
ENCODING 8729
SWIDTH 270 0
DWIDTH 3 0
BBX 1 2 0 4
BITMAP
80
80
ENDCHAR
ENDFONT
